HIERARCHY
ROOT Hips
{
	OFFSET -3.958830 18.904000 13.208200
	CHANNELS 6 Xposition Yposition Zposition Zrotation Yrotation Xrotation 
	JOINT LHipJoint
	{
		OFFSET 0.000000 0.000000 0.000000
		CHANNELS 3 Zrotation Yrotation Xrotation
		JOINT LeftUpLeg
		{
			OFFSET 1.800000 -1.400000 0.085000
			CHANNELS 3 Zrotation Yrotation Xrotation
			JOINT LeftLeg
			{
				OFFSET 2.215000 -6.000000 0.000000
				CHANNELS 3 Zrotation Yrotation Xrotation
				JOINT LeftFoot
				{
					OFFSET 2.500000 -6.900000 0.000000
					CHANNELS 3 Zrotation Yrotation Xrotation
					JOINT LeftToeBase
					{
						OFFSET 0.200000 -0.500000 1.950000
						CHANNELS 3 Zrotation Yrotation Xrotation
						End Site
						{
							OFFSET 0.000000 0.000000 0.000000
						}
					}
				}
			}
		}
	}
	JOINT RHipJoint
	{
		OFFSET 0.000000 0.000000 0.000000
		CHANNELS 3 Zrotation Yrotation Xrotation
		JOINT RightUpLeg
		{
			OFFSET -1.800000 -1.400000 0.085000
			CHANNELS 3 Zrotation Yrotation Xrotation
			JOINT RightLeg
			{
				OFFSET -2.215000 -6.000000 0.000000
				CHANNELS 3 Zrotation Yrotation Xrotation
				JOINT RightFoot
				{
					OFFSET -2.500000 -6.900000 0.000000
					CHANNELS 3 Zrotation Yrotation Xrotation
					JOINT RightToeBase
					{
						OFFSET -0.200000 -0.500000 1.950000
						CHANNELS 3 Zrotation Yrotation Xrotation
						End Site
						{
							OFFSET 0.000000 0.000000 0.000000
						}
					}
				}
			}
		}
	}
	JOINT LowerBack
	{
		OFFSET 0.000000 0.000000 0.000000
		CHANNELS 3 Zrotation Yrotation Xrotation
		JOINT Spine
		{
			OFFSET -0.087000 1.940000 -0.288900
			CHANNELS 3 Zrotation Yrotation Xrotation
			JOINT Spine1
			{
				OFFSET 0.000000 1.950000 0.060000
				CHANNELS 3 Zrotation Yrotation Xrotation
				JOINT Neck
				{
					OFFSET 0.000000 0.000000 0.000000
					CHANNELS 3 Zrotation Yrotation Xrotation
					JOINT Neck1
					{
						OFFSET 0.000000 1.600000 0.340000
						CHANNELS 3 Zrotation Yrotation Xrotation
						JOINT Head
						{
							OFFSET 0.000000 1.667000 -0.240000
							CHANNELS 3 Zrotation Yrotation Xrotation
							End Site
							{
								OFFSET 0.000000 0.000000 0.000000
							}
						}
					}
				}
				JOINT LeftShoulder
				{
					OFFSET 0.000000 0.000000 0.000000
					CHANNELS 3 Zrotation Yrotation Xrotation
					JOINT LeftArm
					{
						OFFSET 2.700000 1.550000 -0.730000
						CHANNELS 3 Zrotation Yrotation Xrotation
						JOINT LeftForeArm
						{
							OFFSET 5.450000 0.000000 0.000000
							CHANNELS 3 Zrotation Yrotation Xrotation
							JOINT LeftHand
							{
								OFFSET 3.450000 0.000000 0.000000
								CHANNELS 3 Zrotation Yrotation Xrotation
								JOINT LeftHandIndex1
								{
									OFFSET 0.750000 0.000000 0.000000
									CHANNELS 3 Zrotation Yrotation Xrotation
									End Site
									{
										OFFSET 0.000000 0.000000 0.000000
									}
								}
							}
						}
					}
				}
				JOINT RightShoulder
				{
					OFFSET 0.000000 0.000000 0.000000
					CHANNELS 3 Zrotation Yrotation Xrotation
					JOINT RightArm
					{
						OFFSET -2.700000 1.550000 -0.730000
						CHANNELS 3 Zrotation Yrotation Xrotation
						JOINT RightForeArm
						{
							OFFSET -5.450000 0.000000 0.000000
							CHANNELS 3 Zrotation Yrotation Xrotation
							JOINT RightHand
							{
								OFFSET -3.450000 0.000000 0.000000
								CHANNELS 3 Zrotation Yrotation Xrotation
								JOINT RightHandIndex1
								{
									OFFSET -0.750000 0.000000 0.000000
									CHANNELS 3 Zrotation Yrotation Xrotation
									End Site
									{
										OFFSET 0.000000 0.000000 0.000000
									}
								}
							}
						}
					}
				}
			}
		}
	}
}
MOTION
Frames: 10
Frame Time: 0.016667
0.091370 16.301410 -0.646940 -3.117333 -1.202120 -1.948179 -15.162013 11.891528 4.192003 11.883050 -5.294333 -23.949879 -21.626231 19.908752 41.791361 1.193212 10.392199 0.893261 0.156780 0.187700 0.045350 18.338487 -9.808289 3.325114 -11.649863 6.125587 -20.584430 25.670138 -18.229998 39.227401 -1.228930 -8.357162 1.305962 0.109550 0.123490 0.122570 -3.706057 -1.396955 -8.919451 9.250937 -0.177388 16.037428 -3.709572 2.226303 13.784000 2.710626 -3.476691 -17.842736 -8.509117 2.742403 37.427466 -0.132810 0.586710 -6.421400 -21.775337 -32.260442 10.042012 -40.138915 -9.550201 -5.343117 -28.169727 -21.901573 1.589076 -3.572572 3.200836 0.153420 0.016130 0.088910 0.081090 17.097432 37.254251 14.289128 41.350632 8.782348 -7.541128 25.880767 24.405926 1.089435 2.365568 -1.399261 -0.015030 0.157380 0.043940 0.034850 
0.091640 16.281850 -0.647540 -3.119918 -1.297879 -1.944502 -15.168554 11.842827 4.228008 12.152078 -5.319166 -24.177000 -22.048332 20.267851 42.018160 1.222361 10.517201 0.852199 0.157660 0.189180 0.042090 18.341440 -9.755668 3.345606 -11.890435 6.246739 -20.851468 26.028517 -18.549606 39.577292 -1.255203 -8.466140 1.269767 0.110610 0.123480 0.124470 -3.701786 -1.407497 -8.954503 9.248015 -0.177106 16.102400 -3.598217 2.220782 13.753915 2.659815 -3.573273 -17.870942 -8.688344 2.834692 37.455077 -0.057810 0.580020 -6.439930 -21.889426 -32.243530 10.024215 -40.132971 -9.451696 -5.426608 -28.154367 -22.075433 1.604235 -3.571431 3.205479 0.154030 0.015830 0.088610 0.080600 17.333868 37.301823 14.296899 41.068874 8.761909 -7.446922 25.817599 24.127973 1.065802 2.363834 -1.397522 -0.013560 0.155290 0.046350 0.035580 
0.091430 16.246890 -0.647330 -3.037974 -1.383943 -1.981275 -15.185268 11.768723 4.292540 12.549916 -5.387383 -24.528759 -22.742561 20.898691 42.467457 1.278479 10.739506 0.786831 0.152330 0.182810 0.035980 18.338410 -9.664834 3.383119 -12.384443 6.425524 -21.284517 26.659696 -19.139721 40.202250 -1.300911 -8.660748 1.209883 0.107250 0.127490 0.122250 -3.675028 -1.443199 -9.026717 9.073695 -0.145987 16.260550 -3.411772 2.241142 13.724277 2.600154 -3.676910 -18.028439 -8.928119 2.900511 37.663124 0.010390 0.510940 -6.324650 -22.291974 -32.356958 10.031107 -39.874740 -9.175104 -5.563708 -28.145004 -22.228063 1.614628 -3.567397 3.202293 0.155640 0.016100 0.085790 0.079860 17.899158 37.505107 14.408887 40.548447 8.497458 -7.438898 25.693891 23.911449 1.042156 2.357147 -1.390464 -0.016310 0.158750 0.051150 0.036230 
0.090620 16.201360 -0.646450 -2.959256 -1.392369 -2.031892 -15.202912 11.668435 4.376195 13.094963 -5.479487 -24.991795 -23.616993 21.696164 43.027027 1.351335 11.016213 0.706361 0.150670 0.177560 0.038830 18.338879 -9.560170 3.422598 -12.946074 6.610601 -21.780742 27.354879 -19.846633 40.954056 -1.357404 -8.884989 1.139273 0.103850 0.127450 0.121630 -3.653115 -1.465519 -9.110796 8.928170 -0.148262 16.459227 -3.286309 2.248510 13.673020 2.548383 -3.726952 -18.170390 -9.057028 2.897684 37.885303 0.126060 0.396330 -6.316010 -22.607367 -32.465430 10.044478 -39.600656 -8.849916 -5.746017 -28.315884 -22.366959 1.628824 -3.562117 3.197158 0.158980 0.013260 0.087430 0.077370 18.345514 37.672155 14.497615 40.181681 8.269458 -7.459132 25.465663 23.734823 1.005820 2.354322 -1.381438 -0.017050 0.161820 0.052480 0.035690 
0.090840 16.152510 -0.644120 -2.947838 -1.344496 -2.074620 -15.216091 11.558072 4.469355 13.730204 -5.580206 -25.547019 -24.486468 22.568754 43.714589 1.423988 11.319466 0.615166 0.142940 0.167760 0.031580 18.346107 -9.446105 3.462756 -13.532131 6.769099 -22.243117 28.191062 -20.637733 41.631472 -1.415529 -9.119844 1.066582 0.099100 0.130060 0.117970 -3.648459 -1.493939 -9.198987 8.959659 -0.223326 16.644689 -3.257592 2.225221 13.570104 2.496982 -3.825200 -18.317508 -9.306413 3.012524 38.138588 0.353140 0.305340 -6.257320 -22.899505 -32.568075 10.068613 -39.378562 -8.492958 -5.921211 -28.491827 -22.457789 1.625992 -3.557816 3.193085 0.163880 0.010790 0.084250 0.072370 18.756839 37.819124 14.577758 39.934771 8.025253 -7.504967 25.253131 23.580285 0.972994 2.349534 -1.370598 -0.021210 0.165300 0.061430 0.034650 
0.092150 16.101710 -0.638990 -2.930234 -1.323816 -2.139057 -15.228319 11.448644 4.558075 14.355986 -5.659889 -26.040365 -25.327882 23.467623 44.416617 1.501562 11.628604 0.530593 0.129860 0.149630 0.022820 18.353601 -9.337461 3.503677 -14.145014 6.909999 -22.664179 29.033534 -21.460777 42.303767 -1.472293 -9.359987 0.996719 0.091110 0.140800 0.114380 -3.645301 -1.512411 -9.285186 8.997617 -0.283637 16.789886 -3.253018 2.216710 13.485231 2.465195 -3.885697 -18.471754 -9.470634 3.087780 38.373606 0.533150 0.197450 -6.003670 -23.282964 -32.667235 10.100317 -39.005105 -8.038134 -6.129101 -28.870130 -22.597045 1.656960 -3.557773 3.185595 0.165830 0.013920 0.077080 0.069690 19.216377 37.948178 14.669817 39.552877 7.693145 -7.610587 25.362948 23.526843 0.972476 2.343856 -1.361439 -0.029450 0.172650 0.070640 0.034800 
0.093480 16.051160 -0.633240 -2.930439 -1.321462 -2.252767 -15.241816 11.348003 4.639062 14.973441 -5.708589 -26.432103 -26.163488 24.336554 45.030435 1.577181 11.902683 0.452194 0.131980 0.150070 0.027920 18.358298 -9.234723 3.542133 -14.739333 7.021381 -22.978009 29.916970 -22.277277 42.871972 -1.537686 -9.582187 0.927262 0.089100 0.134690 0.115040 -3.635984 -1.532320 -9.363882 9.037569 -0.322749 16.975569 -3.182122 2.202782 13.406016 2.457537 -3.957947 -18.586174 -9.663345 3.122394 38.649491 0.559570 0.148680 -6.080540 -23.437968 -32.697820 10.108584 -38.867220 -7.744743 -6.320372 -29.150576 -22.765195 1.681458 -3.548932 3.184857 0.172020 0.007230 0.083820 0.067670 19.406428 38.043307 14.740572 39.350503 7.434653 -7.731240 25.450286 23.523846 0.966527 2.343193 -1.357270 -0.027350 0.172580 0.069720 0.033840 
0.093120 16.003650 -0.627070 -2.871666 -1.349475 -2.390604 -15.258157 11.265172 4.713344 15.485645 -5.748743 -26.744009 -26.918771 25.164873 45.623522 1.641708 12.157134 0.380154 0.131290 0.145710 0.034040 18.356401 -9.143469 3.577191 -15.317131 7.117786 -23.228292 30.662012 -23.032937 43.440823 -1.596714 -9.786342 0.864851 0.086040 0.128810 0.112710 -3.612273 -1.560059 -9.440730 8.948030 -0.316122 17.199898 -3.101035 2.228097 13.359380 2.470690 -3.999165 -18.771433 -9.809016 3.145654 38.998812 0.526430 0.130990 -6.182170 -23.591423 -32.816186 10.157185 -38.648404 -7.378955 -6.554740 -29.443357 -23.025805 1.716548 -3.537806 3.176870 0.184240 0.000550 0.089400 0.062790 19.566340 38.238369 14.856649 39.178312 7.165380 -7.882413 25.472654 23.592385 0.960397 2.338306 -1.348565 -0.031230 0.175470 0.071010 0.028930 
0.094610 15.957300 -0.620560 -2.860322 -1.340097 -2.496761 -15.272364 11.184516 4.781358 15.980872 -5.780667 -27.041663 -27.629448 25.944436 46.157648 1.706694 12.382441 0.315248 0.134710 0.149860 0.040610 18.356891 -9.052553 3.614243 -15.880572 7.195077 -23.486051 31.474738 -23.796529 43.911631 -1.657879 -9.978718 0.805875 0.084750 0.118040 0.113760 -3.595256 -1.586953 -9.511103 8.924881 -0.361308 17.384645 -3.092791 2.203494 13.262266 2.524945 -4.007767 -18.894738 -9.892317 3.191807 39.350033 0.445910 0.182240 -6.337170 -23.698064 -32.866585 10.207596 -38.582660 -7.047049 -6.755094 -29.595579 -23.216838 1.729533 -3.525984 3.175510 0.192420 -0.007440 0.100100 0.060090 19.575898 38.347122 14.893093 39.139285 7.063941 -7.956136 25.488256 23.577512 0.953626 2.339587 -1.341909 -0.027620 0.173840 0.068900 0.026740 
0.096700 15.915960 -0.613480 -2.935614 -1.323021 -2.621274 -15.278171 11.115214 4.841680 16.500968 -5.775064 -27.254924 -28.269014 26.646021 46.600997 1.769850 12.570469 0.259888 0.141880 0.160930 0.044680 18.363485 -8.975978 3.644974 -16.278365 7.271709 -23.679224 32.154685 -24.460972 44.332192 -1.712863 -10.140598 0.759828 0.084120 0.105040 0.115060 -3.599092 -1.608637 -9.572575 9.086694 -0.474282 17.559385 -3.176327 2.156322 13.206467 2.578973 -4.064005 -19.043258 -10.099230 3.302640 39.766733 0.477340 0.202190 -6.446590 -23.778086 -32.955050 10.278388 -38.533217 -6.737770 -6.942325 -29.642789 -23.401102 1.734504 -3.511324 3.180958 0.195120 -0.016440 0.110900 0.059410 19.551943 38.495158 14.943223 39.141496 6.976602 -8.019154 25.410607 23.557087 0.938224 2.341489 -1.337922 -0.016780 0.168590 0.064770 0.027730 
